<mxfile host="app.diagrams.net" modified="2022-04-26T22:21:30.683Z" agent="5.0 (X11; Linux x86_64) AppleWebKit/537.36 (KHTML, like Gecko) Chrome/100.0.4896.127 Safari/537.36" etag="WcAoLLs-0uEIN6vAWfmi" version="17.4.6" type="github">
  <diagram id="C5RBs43oDa-KdzZeNtuy" name="Page-1">
    <mxGraphModel dx="2207" dy="1942" grid="1" gridSize="10" guides="1" tooltips="1" connect="1" arrows="1" fold="1" page="1" pageScale="1" pageWidth="827" pageHeight="1169" math="0" shadow="0">
      <root>
        <mxCell id="WIyWlLk6GJQsqaUBKTNV-0" />
        <mxCell id="WIyWlLk6GJQsqaUBKTNV-1" parent="WIyWlLk6GJQsqaUBKTNV-0" />
        <mxCell id="USmJl3dy4JycOK5EeFaH-9" value="&lt;br&gt;" style="endArrow=block;endSize=16;endFill=0;html=1;rounded=0;exitX=0.5;exitY=0;exitDx=0;exitDy=0;entryX=0.25;entryY=1;entryDx=0;entryDy=0;edgeStyle=orthogonalEdgeStyle;" edge="1" parent="WIyWlLk6GJQsqaUBKTNV-1" source="USmJl3dy4JycOK5EeFaH-14" target="USmJl3dy4JycOK5EeFaH-13">
          <mxGeometry y="10" width="160" relative="1" as="geometry">
            <mxPoint x="573" y="342.5" as="sourcePoint" />
            <mxPoint x="463" y="342.5" as="targetPoint" />
            <mxPoint as="offset" />
          </mxGeometry>
        </mxCell>
        <mxCell id="USmJl3dy4JycOK5EeFaH-13" value="&lt;p style=&quot;margin: 0px ; margin-top: 4px ; text-align: center&quot;&gt;&lt;b&gt;Invitación&lt;/b&gt;&lt;/p&gt;&lt;hr size=&quot;1&quot;&gt;&lt;div style=&quot;height: 2px&quot;&gt;&lt;b&gt;uuid&lt;/b&gt;&lt;br&gt;fecha_caducidad&lt;br&gt;usos_maximos&lt;br&gt;usos_utilizados&lt;/div&gt;" style="verticalAlign=top;align=left;overflow=fill;fontSize=12;fontFamily=Helvetica;html=1;" vertex="1" parent="WIyWlLk6GJQsqaUBKTNV-1">
          <mxGeometry x="333" y="312.5" width="140" height="87.5" as="geometry" />
        </mxCell>
        <mxCell id="USmJl3dy4JycOK5EeFaH-14" value="&lt;p style=&quot;margin: 0px ; margin-top: 4px ; text-align: center&quot;&gt;&lt;b&gt;Invitación Registro&lt;/b&gt;&lt;/p&gt;&lt;hr size=&quot;1&quot;&gt;&lt;div style=&quot;height: 2px&quot;&gt;&lt;/div&gt;" style="verticalAlign=top;align=left;overflow=fill;fontSize=12;fontFamily=Helvetica;html=1;" vertex="1" parent="WIyWlLk6GJQsqaUBKTNV-1">
          <mxGeometry x="230" y="480" width="140" height="60" as="geometry" />
        </mxCell>
        <mxCell id="USmJl3dy4JycOK5EeFaH-15" value="&lt;p style=&quot;margin: 0px ; margin-top: 4px ; text-align: center&quot;&gt;&lt;b&gt;Invitación Grupo&lt;/b&gt;&lt;/p&gt;&lt;hr size=&quot;1&quot;&gt;&lt;div style=&quot;height: 2px&quot;&gt;&lt;/div&gt;" style="verticalAlign=top;align=left;overflow=fill;fontSize=12;fontFamily=Helvetica;html=1;" vertex="1" parent="WIyWlLk6GJQsqaUBKTNV-1">
          <mxGeometry x="430" y="480" width="140" height="60" as="geometry" />
        </mxCell>
        <mxCell id="USmJl3dy4JycOK5EeFaH-16" value="" style="endArrow=block;endSize=16;endFill=0;html=1;rounded=0;exitX=0.5;exitY=0;exitDx=0;exitDy=0;entryX=0.75;entryY=1;entryDx=0;entryDy=0;edgeStyle=orthogonalEdgeStyle;" edge="1" parent="WIyWlLk6GJQsqaUBKTNV-1" source="USmJl3dy4JycOK5EeFaH-15" target="USmJl3dy4JycOK5EeFaH-13">
          <mxGeometry width="160" relative="1" as="geometry">
            <mxPoint x="523" y="612.5" as="sourcePoint" />
            <mxPoint x="683" y="612.5" as="targetPoint" />
          </mxGeometry>
        </mxCell>
        <mxCell id="USmJl3dy4JycOK5EeFaH-17" value="&lt;p style=&quot;margin: 0px ; margin-top: 4px ; text-align: center&quot;&gt;&lt;b&gt;Usuario&lt;/b&gt;&lt;/p&gt;&lt;hr size=&quot;1&quot;&gt;&lt;div style=&quot;height: 2px&quot;&gt;&lt;b&gt;username&lt;br&gt;&lt;/b&gt;email&lt;br&gt;contraseña&lt;br&gt;&lt;/div&gt;" style="verticalAlign=top;align=left;overflow=fill;fontSize=12;fontFamily=Helvetica;html=1;" vertex="1" parent="WIyWlLk6GJQsqaUBKTNV-1">
          <mxGeometry x="333" y="162.5" width="140" height="77.5" as="geometry" />
        </mxCell>
        <mxCell id="USmJl3dy4JycOK5EeFaH-22" value="crea" style="endArrow=none;html=1;endSize=12;startArrow=none;startSize=14;startFill=0;edgeStyle=orthogonalEdgeStyle;rounded=0;entryX=0.5;entryY=0;entryDx=0;entryDy=0;endFill=0;exitX=0.5;exitY=1;exitDx=0;exitDy=0;" edge="1" parent="WIyWlLk6GJQsqaUBKTNV-1" source="USmJl3dy4JycOK5EeFaH-17" target="USmJl3dy4JycOK5EeFaH-13">
          <mxGeometry x="-0.1111" y="20" relative="1" as="geometry">
            <mxPoint x="423" y="332.5" as="sourcePoint" />
            <mxPoint x="443" y="302.5" as="targetPoint" />
            <mxPoint as="offset" />
          </mxGeometry>
        </mxCell>
        <mxCell id="USmJl3dy4JycOK5EeFaH-23" value="1" style="edgeLabel;resizable=0;html=1;align=left;verticalAlign=top;" connectable="0" vertex="1" parent="USmJl3dy4JycOK5EeFaH-22">
          <mxGeometry x="-1" relative="1" as="geometry">
            <mxPoint x="10" as="offset" />
          </mxGeometry>
        </mxCell>
        <mxCell id="USmJl3dy4JycOK5EeFaH-24" value="0..*" style="edgeLabel;resizable=0;html=1;align=right;verticalAlign=top;" connectable="0" vertex="1" parent="USmJl3dy4JycOK5EeFaH-22">
          <mxGeometry x="1" relative="1" as="geometry">
            <mxPoint x="30" y="-30" as="offset" />
          </mxGeometry>
        </mxCell>
        <mxCell id="USmJl3dy4JycOK5EeFaH-27" value="&lt;p style=&quot;margin: 0px ; margin-top: 4px ; text-align: center&quot;&gt;&lt;b&gt;Archivo&lt;/b&gt;&lt;/p&gt;&lt;hr size=&quot;1&quot;&gt;&lt;div style=&quot;height: 2px ; line-height: 1.2&quot;&gt;&lt;b&gt;uuid&lt;/b&gt;&lt;br&gt;data&lt;br&gt;visualizaciones&lt;br&gt;fecha_publicación&lt;br&gt;&lt;/div&gt;" style="verticalAlign=top;align=left;overflow=fill;fontSize=12;fontFamily=Helvetica;html=1;" vertex="1" parent="WIyWlLk6GJQsqaUBKTNV-1">
          <mxGeometry x="10" y="148.13" width="140" height="88.75" as="geometry" />
        </mxCell>
        <mxCell id="USmJl3dy4JycOK5EeFaH-28" value="propietario" style="endArrow=none;html=1;endSize=12;startArrow=none;startSize=14;startFill=0;edgeStyle=orthogonalEdgeStyle;rounded=0;endFill=0;exitX=1;exitY=0.25;exitDx=0;exitDy=0;entryX=0;entryY=0.25;entryDx=0;entryDy=0;" edge="1" parent="WIyWlLk6GJQsqaUBKTNV-1" source="USmJl3dy4JycOK5EeFaH-27" target="USmJl3dy4JycOK5EeFaH-17">
          <mxGeometry x="0.0909" y="20" relative="1" as="geometry">
            <mxPoint x="413" y="232.5" as="sourcePoint" />
            <mxPoint x="303" y="252.5" as="targetPoint" />
            <mxPoint as="offset" />
          </mxGeometry>
        </mxCell>
        <mxCell id="USmJl3dy4JycOK5EeFaH-29" value="0..*" style="edgeLabel;resizable=0;html=1;align=left;verticalAlign=top;" connectable="0" vertex="1" parent="USmJl3dy4JycOK5EeFaH-28">
          <mxGeometry x="-1" relative="1" as="geometry">
            <mxPoint x="10" y="-30" as="offset" />
          </mxGeometry>
        </mxCell>
        <mxCell id="USmJl3dy4JycOK5EeFaH-30" value="1" style="edgeLabel;resizable=0;html=1;align=right;verticalAlign=top;" connectable="0" vertex="1" parent="USmJl3dy4JycOK5EeFaH-28">
          <mxGeometry x="1" relative="1" as="geometry">
            <mxPoint x="-10" y="-30" as="offset" />
          </mxGeometry>
        </mxCell>
        <mxCell id="USmJl3dy4JycOK5EeFaH-41" value="&lt;p style=&quot;margin: 0px ; margin-top: 4px ; text-align: center&quot;&gt;&lt;b&gt;Grupo&lt;/b&gt;&lt;/p&gt;&lt;hr size=&quot;1&quot;&gt;&lt;div style=&quot;height: 2px&quot;&gt;&lt;b&gt;nombre&lt;/b&gt;&lt;br&gt;&lt;br&gt;&lt;/div&gt;&lt;div style=&quot;height: 2px&quot;&gt;&lt;b&gt;&lt;br&gt;&lt;/b&gt;&lt;/div&gt;" style="verticalAlign=top;align=left;overflow=fill;fontSize=12;fontFamily=Helvetica;html=1;" vertex="1" parent="WIyWlLk6GJQsqaUBKTNV-1">
          <mxGeometry x="603" y="162.5" width="140" height="60" as="geometry" />
        </mxCell>
        <mxCell id="USmJl3dy4JycOK5EeFaH-42" value="pertenece" style="endArrow=none;html=1;endSize=12;startArrow=none;startSize=14;startFill=0;edgeStyle=orthogonalEdgeStyle;rounded=0;exitX=1;exitY=0.5;exitDx=0;exitDy=0;entryX=0;entryY=0.5;entryDx=0;entryDy=0;endFill=0;" edge="1" parent="WIyWlLk6GJQsqaUBKTNV-1" source="USmJl3dy4JycOK5EeFaH-17" target="USmJl3dy4JycOK5EeFaH-41">
          <mxGeometry x="0.0769" y="20" relative="1" as="geometry">
            <mxPoint x="523" y="222.5" as="sourcePoint" />
            <mxPoint x="683" y="222.5" as="targetPoint" />
            <mxPoint as="offset" />
          </mxGeometry>
        </mxCell>
        <mxCell id="USmJl3dy4JycOK5EeFaH-43" value="1..*" style="edgeLabel;resizable=0;html=1;align=left;verticalAlign=top;" connectable="0" vertex="1" parent="USmJl3dy4JycOK5EeFaH-42">
          <mxGeometry x="-1" relative="1" as="geometry">
            <mxPoint y="-30" as="offset" />
          </mxGeometry>
        </mxCell>
        <mxCell id="USmJl3dy4JycOK5EeFaH-44" value="0..*" style="edgeLabel;resizable=0;html=1;align=right;verticalAlign=top;" connectable="0" vertex="1" parent="USmJl3dy4JycOK5EeFaH-42">
          <mxGeometry x="1" relative="1" as="geometry">
            <mxPoint x="-10" y="-30" as="offset" />
          </mxGeometry>
        </mxCell>
        <mxCell id="USmJl3dy4JycOK5EeFaH-45" value="propietario" style="endArrow=none;html=1;endSize=12;startArrow=none;startSize=14;startFill=0;edgeStyle=orthogonalEdgeStyle;rounded=0;exitX=0.5;exitY=0;exitDx=0;exitDy=0;endFill=0;entryX=0.25;entryY=0;entryDx=0;entryDy=0;" edge="1" parent="WIyWlLk6GJQsqaUBKTNV-1" source="USmJl3dy4JycOK5EeFaH-17" target="USmJl3dy4JycOK5EeFaH-41">
          <mxGeometry x="0.0301" y="10" relative="1" as="geometry">
            <mxPoint x="393" y="112.5" as="sourcePoint" />
            <mxPoint x="690" y="140" as="targetPoint" />
            <Array as="points">
              <mxPoint x="403" y="133" />
              <mxPoint x="640" y="133" />
              <mxPoint x="640" y="163" />
            </Array>
            <mxPoint as="offset" />
          </mxGeometry>
        </mxCell>
        <mxCell id="USmJl3dy4JycOK5EeFaH-46" value="1" style="edgeLabel;resizable=0;html=1;align=left;verticalAlign=top;" connectable="0" vertex="1" parent="USmJl3dy4JycOK5EeFaH-45">
          <mxGeometry x="-1" relative="1" as="geometry">
            <mxPoint x="11" y="-30" as="offset" />
          </mxGeometry>
        </mxCell>
        <mxCell id="USmJl3dy4JycOK5EeFaH-47" value="0..*" style="edgeLabel;resizable=0;html=1;align=right;verticalAlign=top;" connectable="0" vertex="1" parent="USmJl3dy4JycOK5EeFaH-45">
          <mxGeometry x="1" relative="1" as="geometry">
            <mxPoint x="2" y="-30" as="offset" />
          </mxGeometry>
        </mxCell>
        <mxCell id="USmJl3dy4JycOK5EeFaH-49" value="&lt;p style=&quot;margin: 0px ; margin-top: 4px ; text-align: center&quot;&gt;&lt;b&gt;Archivo Grupo&lt;/b&gt;&lt;/p&gt;&lt;hr size=&quot;1&quot;&gt;&lt;div style=&quot;height: 2px ; line-height: 1.2&quot;&gt;&lt;br&gt;&lt;/div&gt;" style="verticalAlign=top;align=left;overflow=fill;fontSize=12;fontFamily=Helvetica;html=1;" vertex="1" parent="WIyWlLk6GJQsqaUBKTNV-1">
          <mxGeometry x="270" y="30" width="140" height="40" as="geometry" />
        </mxCell>
        <mxCell id="USmJl3dy4JycOK5EeFaH-50" value="" style="endArrow=block;endSize=16;endFill=0;html=1;rounded=0;entryX=0.75;entryY=0;entryDx=0;entryDy=0;exitX=0;exitY=0.5;exitDx=0;exitDy=0;edgeStyle=orthogonalEdgeStyle;" edge="1" parent="WIyWlLk6GJQsqaUBKTNV-1" source="USmJl3dy4JycOK5EeFaH-49" target="USmJl3dy4JycOK5EeFaH-27">
          <mxGeometry width="160" relative="1" as="geometry">
            <mxPoint x="110" y="320" as="sourcePoint" />
            <mxPoint x="270" y="320" as="targetPoint" />
          </mxGeometry>
        </mxCell>
        <mxCell id="USmJl3dy4JycOK5EeFaH-51" value="pertenece" style="endArrow=none;html=1;endSize=12;startArrow=none;startSize=14;startFill=0;edgeStyle=orthogonalEdgeStyle;rounded=0;exitX=1;exitY=0.5;exitDx=0;exitDy=0;entryX=0.5;entryY=0;entryDx=0;entryDy=0;endFill=0;" edge="1" parent="WIyWlLk6GJQsqaUBKTNV-1" source="USmJl3dy4JycOK5EeFaH-49" target="USmJl3dy4JycOK5EeFaH-41">
          <mxGeometry x="0.1693" y="10" relative="1" as="geometry">
            <mxPoint x="520" y="40" as="sourcePoint" />
            <mxPoint x="730" y="80" as="targetPoint" />
            <mxPoint as="offset" />
          </mxGeometry>
        </mxCell>
        <mxCell id="USmJl3dy4JycOK5EeFaH-52" value="0..n" style="edgeLabel;resizable=0;html=1;align=left;verticalAlign=top;" connectable="0" vertex="1" parent="USmJl3dy4JycOK5EeFaH-51">
          <mxGeometry x="-1" relative="1" as="geometry">
            <mxPoint x="10" y="-30" as="offset" />
          </mxGeometry>
        </mxCell>
        <mxCell id="USmJl3dy4JycOK5EeFaH-53" value="1..*" style="edgeLabel;resizable=0;html=1;align=right;verticalAlign=top;" connectable="0" vertex="1" parent="USmJl3dy4JycOK5EeFaH-51">
          <mxGeometry x="1" relative="1" as="geometry">
            <mxPoint x="57" y="-33" as="offset" />
          </mxGeometry>
        </mxCell>
        <mxCell id="USmJl3dy4JycOK5EeFaH-54" value="&lt;p style=&quot;margin: 0px ; margin-top: 4px ; text-align: center&quot;&gt;&lt;b&gt;Archivo Publico&lt;/b&gt;&lt;/p&gt;&lt;hr size=&quot;1&quot;&gt;&lt;div style=&quot;height: 2px ; line-height: 1.2&quot;&gt;&lt;div style=&quot;height: 2px ; line-height: 1.2&quot;&gt;&lt;span&gt;contraseña&lt;/span&gt;&lt;/div&gt;&lt;/div&gt;" style="verticalAlign=top;align=left;overflow=fill;fontSize=12;fontFamily=Helvetica;html=1;" vertex="1" parent="WIyWlLk6GJQsqaUBKTNV-1">
          <mxGeometry x="-111.5" y="20" width="140" height="60" as="geometry" />
        </mxCell>
        <mxCell id="USmJl3dy4JycOK5EeFaH-55" value="" style="endArrow=block;endSize=16;endFill=0;html=1;rounded=0;entryX=0.25;entryY=0;entryDx=0;entryDy=0;exitX=1;exitY=0.5;exitDx=0;exitDy=0;edgeStyle=orthogonalEdgeStyle;" edge="1" parent="WIyWlLk6GJQsqaUBKTNV-1" source="USmJl3dy4JycOK5EeFaH-54" target="USmJl3dy4JycOK5EeFaH-27">
          <mxGeometry width="160" relative="1" as="geometry">
            <mxPoint x="280" y="60" as="sourcePoint" />
            <mxPoint x="198" y="152.5" as="targetPoint" />
          </mxGeometry>
        </mxCell>
        <mxCell id="USmJl3dy4JycOK5EeFaH-56" value="&lt;p style=&quot;margin: 0px ; margin-top: 4px ; text-align: center&quot;&gt;&lt;b&gt;Clave Publica&lt;/b&gt;&lt;/p&gt;&lt;hr size=&quot;1&quot;&gt;&lt;div style=&quot;height: 2px ; line-height: 1.2&quot;&gt;&lt;b&gt;clave&lt;/b&gt;&lt;/div&gt;" style="verticalAlign=top;align=left;overflow=fill;fontSize=12;fontFamily=Helvetica;html=1;" vertex="1" parent="WIyWlLk6GJQsqaUBKTNV-1">
          <mxGeometry x="270" y="-130" width="140" height="60" as="geometry" />
        </mxCell>
        <mxCell id="USmJl3dy4JycOK5EeFaH-58" value="Encriptado" style="endArrow=none;html=1;endSize=12;startArrow=none;startSize=14;startFill=0;edgeStyle=orthogonalEdgeStyle;rounded=0;entryX=0.5;entryY=0;entryDx=0;entryDy=0;exitX=0.5;exitY=1;exitDx=0;exitDy=0;endFill=0;" edge="1" parent="WIyWlLk6GJQsqaUBKTNV-1" source="USmJl3dy4JycOK5EeFaH-56" target="USmJl3dy4JycOK5EeFaH-49">
          <mxGeometry y="50" relative="1" as="geometry">
            <mxPoint x="-10" y="-70" as="sourcePoint" />
            <mxPoint x="150" y="-70" as="targetPoint" />
            <Array as="points">
              <mxPoint x="340" y="-40" />
              <mxPoint x="340" y="-40" />
            </Array>
            <mxPoint as="offset" />
          </mxGeometry>
        </mxCell>
        <mxCell id="USmJl3dy4JycOK5EeFaH-59" value="1" style="edgeLabel;resizable=0;html=1;align=left;verticalAlign=top;" connectable="0" vertex="1" parent="USmJl3dy4JycOK5EeFaH-58">
          <mxGeometry x="-1" relative="1" as="geometry">
            <mxPoint x="10" as="offset" />
          </mxGeometry>
        </mxCell>
        <mxCell id="USmJl3dy4JycOK5EeFaH-60" value="1..*" style="edgeLabel;resizable=0;html=1;align=right;verticalAlign=top;" connectable="0" vertex="1" parent="USmJl3dy4JycOK5EeFaH-58">
          <mxGeometry x="1" relative="1" as="geometry">
            <mxPoint x="30" y="-30" as="offset" />
          </mxGeometry>
        </mxCell>
        <mxCell id="USmJl3dy4JycOK5EeFaH-61" value="asociado" style="endArrow=none;html=1;endSize=12;startArrow=none;startSize=14;startFill=0;edgeStyle=orthogonalEdgeStyle;rounded=0;exitX=1;exitY=0.5;exitDx=0;exitDy=0;entryX=0.75;entryY=0;entryDx=0;entryDy=0;endFill=0;" edge="1" parent="WIyWlLk6GJQsqaUBKTNV-1" source="USmJl3dy4JycOK5EeFaH-56" target="USmJl3dy4JycOK5EeFaH-41">
          <mxGeometry x="0.0348" y="10" relative="1" as="geometry">
            <mxPoint x="600" y="-100" as="sourcePoint" />
            <mxPoint x="760" y="-100" as="targetPoint" />
            <mxPoint as="offset" />
          </mxGeometry>
        </mxCell>
        <mxCell id="USmJl3dy4JycOK5EeFaH-62" value="1" style="edgeLabel;resizable=0;html=1;align=left;verticalAlign=top;" connectable="0" vertex="1" parent="USmJl3dy4JycOK5EeFaH-61">
          <mxGeometry x="-1" relative="1" as="geometry">
            <mxPoint x="4" y="-30" as="offset" />
          </mxGeometry>
        </mxCell>
        <mxCell id="USmJl3dy4JycOK5EeFaH-63" value="1" style="edgeLabel;resizable=0;html=1;align=right;verticalAlign=top;" connectable="0" vertex="1" parent="USmJl3dy4JycOK5EeFaH-61">
          <mxGeometry x="1" relative="1" as="geometry">
            <mxPoint x="-18" y="-23" as="offset" />
          </mxGeometry>
        </mxCell>
        <mxCell id="USmJl3dy4JycOK5EeFaH-64" value="RS: Dado un Grupo todos los Archivo Grupo que pertenecen a ese Grupo deben estar encriptados con la clave publica asociada al grupo." style="text;html=1;strokeColor=none;fillColor=none;align=center;verticalAlign=middle;whiteSpace=wrap;rounded=0;" vertex="1" parent="WIyWlLk6GJQsqaUBKTNV-1">
          <mxGeometry x="-250" y="-170" width="457" height="30" as="geometry" />
        </mxCell>
        <mxCell id="USmJl3dy4JycOK5EeFaH-67" value="" style="endArrow=none;html=1;endSize=12;startArrow=none;startSize=14;startFill=0;edgeStyle=orthogonalEdgeStyle;rounded=0;entryX=0.5;entryY=1;entryDx=0;entryDy=0;exitX=1;exitY=0.5;exitDx=0;exitDy=0;endFill=0;" edge="1" parent="WIyWlLk6GJQsqaUBKTNV-1" source="USmJl3dy4JycOK5EeFaH-15" target="USmJl3dy4JycOK5EeFaH-41">
          <mxGeometry x="-0.4725" y="-29" relative="1" as="geometry">
            <mxPoint x="320" y="210" as="sourcePoint" />
            <mxPoint x="480" y="210" as="targetPoint" />
            <mxPoint x="-2" y="10" as="offset" />
          </mxGeometry>
        </mxCell>
        <mxCell id="USmJl3dy4JycOK5EeFaH-68" value="0..n" style="edgeLabel;resizable=0;html=1;align=left;verticalAlign=top;" connectable="0" vertex="1" parent="USmJl3dy4JycOK5EeFaH-67">
          <mxGeometry x="-1" relative="1" as="geometry" />
        </mxCell>
        <mxCell id="USmJl3dy4JycOK5EeFaH-69" value="1" style="edgeLabel;resizable=0;html=1;align=right;verticalAlign=top;" connectable="0" vertex="1" parent="USmJl3dy4JycOK5EeFaH-67">
          <mxGeometry x="1" relative="1" as="geometry">
            <mxPoint x="17" as="offset" />
          </mxGeometry>
        </mxCell>
        <mxCell id="USmJl3dy4JycOK5EeFaH-70" value="registrado" style="endArrow=none;html=1;endSize=12;startArrow=none;startSize=14;startFill=0;edgeStyle=orthogonalEdgeStyle;rounded=0;entryX=0;entryY=0.75;entryDx=0;entryDy=0;exitX=0;exitY=0.5;exitDx=0;exitDy=0;endFill=0;" edge="1" parent="WIyWlLk6GJQsqaUBKTNV-1" source="USmJl3dy4JycOK5EeFaH-14" target="USmJl3dy4JycOK5EeFaH-17">
          <mxGeometry x="-0.0572" y="30" relative="1" as="geometry">
            <mxPoint x="50" y="440" as="sourcePoint" />
            <mxPoint x="210" y="440" as="targetPoint" />
            <Array as="points">
              <mxPoint x="210" y="510" />
              <mxPoint x="210" y="280" />
              <mxPoint x="270" y="280" />
              <mxPoint x="270" y="208" />
            </Array>
            <mxPoint as="offset" />
          </mxGeometry>
        </mxCell>
        <mxCell id="USmJl3dy4JycOK5EeFaH-71" value="1" style="edgeLabel;resizable=0;html=1;align=left;verticalAlign=top;" connectable="0" vertex="1" parent="USmJl3dy4JycOK5EeFaH-70">
          <mxGeometry x="-1" relative="1" as="geometry">
            <mxPoint x="-30" as="offset" />
          </mxGeometry>
        </mxCell>
        <mxCell id="USmJl3dy4JycOK5EeFaH-72" value="0..*" style="edgeLabel;resizable=0;html=1;align=right;verticalAlign=top;" connectable="0" vertex="1" parent="USmJl3dy4JycOK5EeFaH-70">
          <mxGeometry x="1" relative="1" as="geometry">
            <mxPoint x="-13" as="offset" />
          </mxGeometry>
        </mxCell>
        <mxCell id="USmJl3dy4JycOK5EeFaH-75" value="RS: El único Usuario que puede crear una Invitación Grupo es el Usuario que es propietario del Grupo al que quiere crear la invitación&amp;nbsp;" style="text;html=1;strokeColor=none;fillColor=none;align=center;verticalAlign=middle;whiteSpace=wrap;rounded=0;" vertex="1" parent="WIyWlLk6GJQsqaUBKTNV-1">
          <mxGeometry x="-270" y="-115" width="457" height="30" as="geometry" />
        </mxCell>
      </root>
    </mxGraphModel>
  </diagram>
</mxfile>
